<svg id="Layer_1" data-name="Layer 1" xmlns="http://www.w3.org/2000/svg" viewBox="0 0 249.95 340.16"><defs><style>.cls-1{fill:#63c7f1;}.cls-2{fill:#a9dbf0;}.cls-3{fill:#00a4c9;}.cls-4{fill:#f9b233;}.cls-5{fill:#fff;}</style></defs><path class="cls-1" d="M6.17,0H145.56A104.39,104.39,0,0,1,250,104.39V340.16a0,0,0,0,1,0,0H6.17a0,0,0,0,1,0,0V0A0,0,0,0,1,6.17,0Z"/><polygon class="cls-2" points="249.95 95 163.06 95 163.06 0 249.95 95"/><rect class="cls-3" x="71.17" y="122" width="150" height="29"/><rect class="cls-3" x="33.17" y="170.08" width="188" height="29"/><rect class="cls-3" x="33.17" y="218.16" width="188" height="29"/><rect class="cls-3" x="33.17" y="266.24" width="188" height="29"/><path class="cls-4" d="M0,181.26H156a7.09,7.09,0,0,1,7.09,7.09v86.05a9.65,9.65,0,0,1-9.65,9.65H0a0,0,0,0,1,0,0V181.26A0,0,0,0,1,0,181.26Z"/><path class="cls-5" d="M196,469.16l10.56-15.75h6.63L199.22,473.3l-11.28,16.86h-6.62Zm.26,4.85-.89-1.26-13.66-19.34h6.63l10.15,15,1,1.37,14.38,20.42h-6.63Z" transform="translate(-151.83 -243)"/><path class="cls-5" d="M224.71,490a24,24,0,0,1-5.08-1.52,21.88,21.88,0,0,1-4.41-2.52L218.9,482a17,17,0,0,0,5.29,2.73,20.72,20.72,0,0,0,6.28.91,14.16,14.16,0,0,0,7.09-1.47,4.62,4.62,0,0,0,2.51-4.19v0a4.1,4.1,0,0,0-1.14-3.05,7,7,0,0,0-3-1.67,36.89,36.89,0,0,0-4.67-1,.58.58,0,0,0-.19,0l-.19,0-.43-.08a50.17,50.17,0,0,1-6.87-1.43,9.71,9.71,0,0,1-4.53-2.9,8.76,8.76,0,0,1-1.88-6v0A9.64,9.64,0,0,1,219,458a10.77,10.77,0,0,1,5.11-3.67,22.71,22.71,0,0,1,8.07-1.27,23.53,23.53,0,0,1,4.44.43,24.38,24.38,0,0,1,4.31,1.28,25.35,25.35,0,0,1,4.18,2.13l-3.36,4.1a20.32,20.32,0,0,0-4.78-2.31,15.39,15.39,0,0,0-4.79-.78,12.57,12.57,0,0,0-6.7,1.51,4.76,4.76,0,0,0-2.39,4.26v0a3.75,3.75,0,0,0,1.23,3,7.69,7.69,0,0,0,3.07,1.61c1.22.34,2.93.7,5.11,1.07l.21,0,.22,0,.32,0,.32.05a37.92,37.92,0,0,1,6.38,1.62,9.84,9.84,0,0,1,4.28,3,8.73,8.73,0,0,1,1.72,5.7v0a9.25,9.25,0,0,1-1.82,5.75,11.34,11.34,0,0,1-5.28,3.64,24.77,24.77,0,0,1-8.35,1.25A31.18,31.18,0,0,1,224.71,490Z" transform="translate(-151.83 -243)"/><path class="cls-5" d="M253.73,453.41h5.9v36.75h-5.9Zm4,31.84h9.52c3.11,0,5.51-.7,7.22-2.11a7.26,7.26,0,0,0,2.56-5.95V466.38a7.29,7.29,0,0,0-2.56-6c-1.71-1.4-4.11-2.11-7.22-2.11h-9.52v-4.9h9.35a22,22,0,0,1,8.65,1.54,11.84,11.84,0,0,1,5.47,4.5,13,13,0,0,1,1.88,7.13V477a13,13,0,0,1-1.88,7.13,11.85,11.85,0,0,1-5.49,4.5,22.09,22.09,0,0,1-8.66,1.54h-9.32Z" transform="translate(-151.83 -243)"/></svg>